<svg width="203" height="117" fill="none" xmlns="http://www.w3.org/2000/svg" >
    <g filter="url(#a)"><rect x="15" width="173" height="109" rx="29" fill="#FDE88C"/><rect x="16.5" y="1.5" width="170" height="106" rx="27.5" stroke="#000" stroke-width="3"/></g><g filter="url(#b)"><mask id="c" fill="#fff"><path d="M71 0h88c16.016 0 29 12.984 29 29v51c0 16.016-12.984 29-29 29H71V0Z"/></mask><path d="M71 0h88c16.016 0 29 12.984 29 29v51c0 16.016-12.984 29-29 29H71V0Z" fill="#E28838"/><path d="M71-3h88c17.673 0 32 14.327 32 32h-6c0-14.36-11.641-26-26-26H71v-6Zm120 83c0 17.673-14.327 32-32 32H71v-6h88c14.359 0 26-11.64 26-26h6ZM71 109V0v109ZM159-3c17.673 0 32 14.327 32 32v51c0 17.673-14.327 32-32 32v-6c14.359 0 26-11.64 26-26V29c0-14.36-11.641-26-26-26v-6Z" fill="#000" mask="url(#c)"/></g><g filter="url(#d)"><path d="M23 36C23 17.775 37.775 3 56 3h79c24.853 0 45 20.147 45 45v3c0 30.376-24.624 55-55 55H56c-18.225 0-33-14.775-33-33V36Z" fill="#FCD366"/></g><g filter="url(#e)"><rect x="34" y="17" width="134" height="76" rx="37" fill="#351A24"/></g><g filter="url(#f)"><circle cx="66" cy="47" r="13" fill="#87FDEA"/></g><g filter="url(#g)"><circle cx="136" cy="47" r="13" fill="#87FDEA"/></g><g filter="url(#h)"><path d="M188 32h6a5 5 0 0 1 5 5v36a5 5 0 0 1-5 5h-6V32Z" fill="#E08B40"/><path d="M188.5 32.5h5.5a4.5 4.5 0 0 1 4.5 4.5v36a4.5 4.5 0 0 1-4.5 4.5h-5.5v-45Z" stroke="#000"/></g><g filter="url(#i)"><path d="M15 34H9a5 5 0 0 0-5 5v36a5 5 0 0 0 5 5h6V34Z" fill="#ED9735"/><path d="M14.5 34.5H9A4.5 4.5 0 0 0 4.5 39v36A4.5 4.5 0 0 0 9 79.5h5.5v-45Z" stroke="#000"/></g><g filter="url(#j)"><mask id="k" fill="#fff"><path d="M15 34H9a5 5 0 0 0-5 5v23h11V34Z"/></mask><path d="M15 34H9a5 5 0 0 0-5 5v23h11V34Z" fill="#FDE88C"/><path d="M16 33H9a6 6 0 0 0-6 6h2a4 4 0 0 1 4-4h5l2-2ZM4 62h11H4Zm12 0V33l-2 2v27h2ZM9 33a6 6 0 0 0-6 6v23h2V39a4 4 0 0 1 4-4v-2Z" fill="#000" mask="url(#k)"/></g><g filter="url(#l)"><mask id="m" fill="#fff"><path d="M188 32h6a5 5 0 0 1 5 5v23h-11V32Z"/></mask><path d="M188 32h6a5 5 0 0 1 5 5v23h-11V32Z" fill="#FCDC6B"/><path d="M187 31h7a6 6 0 0 1 6 6h-2a4 4 0 0 0-4-4h-5l-2-2Zm12 29h-11 11Zm-12 0V31l2 2v27h-2Zm7-29a6 6 0 0 1 6 6v23h-2V37a4 4 0 0 0-4-4v-2Z" fill="#000" mask="url(#m)"/></g><g filter="url(#n)"><path d="M87.003 67s-.5 3.077 11 5 16.453-3.112 17-4.5" stroke="#EBE9DB" stroke-width="8" stroke-linecap="round"/></g><defs><filter id="a" x="11" y="0" width="181" height="117" filterUnits="userSpaceOnUse" color-interpolation-filters="sRGB"><feFlood flood-opacity="0" result="BackgroundImageFix"/><feColorMatrix in="SourceAlpha" values="0 0 0 0 0 0 0 0 0 0 0 0 0 0 0 0 0 0 127 0" result="hardAlpha"/><feOffset dy="4"/><feGaussianBlur stdDeviation="2"/><feComposite in2="hardAlpha" operator="out"/><feColorMatrix values="0 0 0 0 0 0 0 0 0 0 0 0 0 0 0 0 0 0 0.25 0"/><feBlend in2="BackgroundImageFix" result="effect1_dropShadow_2_39"/><feBlend in="SourceGraphic" in2="effect1_dropShadow_2_39" result="shape"/></filter><filter id="b" x="67" y="0" width="125" height="117" filterUnits="userSpaceOnUse" color-interpolation-filters="sRGB"><feFlood flood-opacity="0" result="BackgroundImageFix"/><feColorMatrix in="SourceAlpha" values="0 0 0 0 0 0 0 0 0 0 0 0 0 0 0 0 0 0 127 0" result="hardAlpha"/><feOffset dy="4"/><feGaussianBlur stdDeviation="2"/><feComposite in2="hardAlpha" operator="out"/><feColorMatrix values="0 0 0 0 0 0 0 0 0 0 0 0 0 0 0 0 0 0 0.25 0"/><feBlend in2="BackgroundImageFix" result="effect1_dropShadow_2_39"/><feBlend in="SourceGraphic" in2="effect1_dropShadow_2_39" result="shape"/></filter><filter id="d" x="19" y="3" width="165" height="111" filterUnits="userSpaceOnUse" color-interpolation-filters="sRGB"><feFlood flood-opacity="0" result="BackgroundImageFix"/><feColorMatrix in="SourceAlpha" values="0 0 0 0 0 0 0 0 0 0 0 0 0 0 0 0 0 0 127 0" result="hardAlpha"/><feOffset dy="4"/><feGaussianBlur stdDeviation="2"/><feComposite in2="hardAlpha" operator="out"/><feColorMatrix values="0 0 0 0 0 0 0 0 0 0 0 0 0 0 0 0 0 0 0.25 0"/><feBlend in2="BackgroundImageFix" result="effect1_dropShadow_2_39"/><feBlend in="SourceGraphic" in2="effect1_dropShadow_2_39" result="shape"/></filter><filter id="e" x="30" y="17" width="142" height="84" filterUnits="userSpaceOnUse" color-interpolation-filters="sRGB"><feFlood flood-opacity="0" result="BackgroundImageFix"/><feColorMatrix in="SourceAlpha" values="0 0 0 0 0 0 0 0 0 0 0 0 0 0 0 0 0 0 127 0" result="hardAlpha"/><feOffset dy="4"/><feGaussianBlur stdDeviation="2"/><feComposite in2="hardAlpha" operator="out"/><feColorMatrix values="0 0 0 0 0 0 0 0 0 0 0 0 0 0 0 0 0 0 0.25 0"/><feBlend in2="BackgroundImageFix" result="effect1_dropShadow_2_39"/><feBlend in="SourceGraphic" in2="effect1_dropShadow_2_39" result="shape"/></filter><filter id="f" x="49" y="34" width="34" height="34" filterUnits="userSpaceOnUse" color-interpolation-filters="sRGB"><feFlood flood-opacity="0" result="BackgroundImageFix"/><feColorMatrix in="SourceAlpha" values="0 0 0 0 0 0 0 0 0 0 0 0 0 0 0 0 0 0 127 0" result="hardAlpha"/><feOffset dy="4"/><feGaussianBlur stdDeviation="2"/><feComposite in2="hardAlpha" operator="out"/><feColorMatrix values="0 0 0 0 0 0 0 0 0 0 0 0 0 0 0 0 0 0 0.25 0"/><feBlend in2="BackgroundImageFix" result="effect1_dropShadow_2_39"/><feBlend in="SourceGraphic" in2="effect1_dropShadow_2_39" result="shape"/></filter><filter id="g" x="119" y="34" width="34" height="34" filterUnits="userSpaceOnUse" color-interpolation-filters="sRGB"><feFlood flood-opacity="0" result="BackgroundImageFix"/><feColorMatrix in="SourceAlpha" values="0 0 0 0 0 0 0 0 0 0 0 0 0 0 0 0 0 0 127 0" result="hardAlpha"/><feOffset dy="4"/><feGaussianBlur stdDeviation="2"/><feComposite in2="hardAlpha" operator="out"/><feColorMatrix values="0 0 0 0 0 0 0 0 0 0 0 0 0 0 0 0 0 0 0.25 0"/><feBlend in2="BackgroundImageFix" result="effect1_dropShadow_2_39"/><feBlend in="SourceGraphic" in2="effect1_dropShadow_2_39" result="shape"/></filter><filter id="h" x="184" y="32" width="19" height="54" filterUnits="userSpaceOnUse" color-interpolation-filters="sRGB"><feFlood flood-opacity="0" result="BackgroundImageFix"/><feColorMatrix in="SourceAlpha" values="0 0 0 0 0 0 0 0 0 0 0 0 0 0 0 0 0 0 127 0" result="hardAlpha"/><feOffset dy="4"/><feGaussianBlur stdDeviation="2"/><feComposite in2="hardAlpha" operator="out"/><feColorMatrix values="0 0 0 0 0 0 0 0 0 0 0 0 0 0 0 0 0 0 0.25 0"/><feBlend in2="BackgroundImageFix" result="effect1_dropShadow_2_39"/><feBlend in="SourceGraphic" in2="effect1_dropShadow_2_39" result="shape"/></filter><filter id="i" x="0" y="34" width="19" height="54" filterUnits="userSpaceOnUse" color-interpolation-filters="sRGB"><feFlood flood-opacity="0" result="BackgroundImageFix"/><feColorMatrix in="SourceAlpha" values="0 0 0 0 0 0 0 0 0 0 0 0 0 0 0 0 0 0 127 0" result="hardAlpha"/><feOffset dy="4"/><feGaussianBlur stdDeviation="2"/><feComposite in2="hardAlpha" operator="out"/><feColorMatrix values="0 0 0 0 0 0 0 0 0 0 0 0 0 0 0 0 0 0 0.25 0"/><feBlend in2="BackgroundImageFix" result="effect1_dropShadow_2_39"/><feBlend in="SourceGraphic" in2="effect1_dropShadow_2_39" result="shape"/></filter><filter id="j" x="0" y="34" width="19" height="36" filterUnits="userSpaceOnUse" color-interpolation-filters="sRGB"><feFlood flood-opacity="0" result="BackgroundImageFix"/><feColorMatrix in="SourceAlpha" values="0 0 0 0 0 0 0 0 0 0 0 0 0 0 0 0 0 0 127 0" result="hardAlpha"/><feOffset dy="4"/><feGaussianBlur stdDeviation="2"/><feComposite in2="hardAlpha" operator="out"/><feColorMatrix values="0 0 0 0 0 0 0 0 0 0 0 0 0 0 0 0 0 0 0.25 0"/><feBlend in2="BackgroundImageFix" result="effect1_dropShadow_2_39"/><feBlend in="SourceGraphic" in2="effect1_dropShadow_2_39" result="shape"/></filter><filter id="l" x="184" y="32" width="19" height="36" filterUnits="userSpaceOnUse" color-interpolation-filters="sRGB"><feFlood flood-opacity="0" result="BackgroundImageFix"/><feColorMatrix in="SourceAlpha" values="0 0 0 0 0 0 0 0 0 0 0 0 0 0 0 0 0 0 127 0" result="hardAlpha"/><feOffset dy="4"/><feGaussianBlur stdDeviation="2"/><feComposite in2="hardAlpha" operator="out"/><feColorMatrix values="0 0 0 0 0 0 0 0 0 0 0 0 0 0 0 0 0 0 0.25 0"/><feBlend in2="BackgroundImageFix" result="effect1_dropShadow_2_39"/><feBlend in="SourceGraphic" in2="effect1_dropShadow_2_39" result="shape"/></filter><filter id="n" x="79" y="62.999" width="44.004" height="21.433" filterUnits="userSpaceOnUse" color-interpolation-filters="sRGB"><feFlood flood-opacity="0" result="BackgroundImageFix"/><feColorMatrix in="SourceAlpha" values="0 0 0 0 0 0 0 0 0 0 0 0 0 0 0 0 0 0 127 0" result="hardAlpha"/><feOffset dy="4"/><feGaussianBlur stdDeviation="2"/><feComposite in2="hardAlpha" operator="out"/><feColorMatrix values="0 0 0 0 0 0 0 0 0 0 0 0 0 0 0 0 0 0 0.25 0"/><feBlend in2="BackgroundImageFix" result="effect1_dropShadow_2_39"/><feBlend in="SourceGraphic" in2="effect1_dropShadow_2_39" result="shape"/></filter></defs>
    <style>
        path { fill: #000; }
        @media (prefers-color-scheme: dark) {
            path { fill: #FFF; }
        }
        height: 28px;
        width: 28px;
        display: inline-block;
    </style>
</svg>